{
  "asset": {
    "generator": "Khronos glTF Blender I/O v3.2.43",
    "version": "2.0"
  },
  "scene": 0,
  "scenes": [
    {
      "name": "Scene",
      "nodes": [0]
    }
  ],
  "nodes": [
    {
      "mesh": 0,
      "name": "Cube",
      "rotation": [
        0, 0.7071068286895752, -0.7071068286895752, 5.338508302088485e-8
      ],
      "scale": [1.8081014156341553, 1, 0.2214561551809311],
      "translation": [0.464435338973999, -0.17448154091835022, -0.2867431640625]
    }
  ],
  "animations": [
    {
      "channels": [
        {
          "sampler": 0,
          "target": {
            "node": 0,
            "path": "translation"
          }
        },
        {
          "sampler": 1,
          "target": {
            "node": 0,
            "path": "rotation"
          }
        },
        {
          "sampler": 2,
          "target": {
            "node": 0,
            "path": "scale"
          }
        }
      ],
      "name": "CubeAction",
      "samplers": [
        {
          "input": 8,
          "interpolation": "STEP",
          "output": 9
        },
        {
          "input": 8,
          "interpolation": "STEP",
          "output": 10
        },
        {
          "input": 8,
          "interpolation": "STEP",
          "output": 11
        }
      ]
    }
  ],
  "materials": [
    {
      "doubleSided": true,
      "name": "Material",
      "pbrMetallicRoughness": {
        "baseColorFactor": [
          0.7697303891181946, 0.8000000715255737, 0.7906272411346436, 1
        ],
        "metallicFactor": 0,
        "roughnessFactor": 0.4000000059604645
      }
    },
    {
      "doubleSided": true,
      "name": "Material.001",
      "pbrMetallicRoughness": {
        "baseColorFactor": [0, 0, 0, 1],
        "metallicFactor": 0,
        "roughnessFactor": 0.5
      }
    }
  ],
  "meshes": [
    {
      "name": "Cube",
      "primitives": [
        {
          "attributes": {
            "POSITION": 0,
            "NORMAL": 1,
            "TEXCOORD_0": 2
          },
          "indices": 3,
          "material": 0
        },
        {
          "attributes": {
            "POSITION": 4,
            "NORMAL": 5,
            "TEXCOORD_0": 6
          },
          "indices": 7,
          "material": 1
        }
      ]
    }
  ],
  "accessors": [
    {
      "bufferView": 0,
      "componentType": 5126,
      "count": 212,
      "max": [1, 1, 1],
      "min": [-1, -1, -1],
      "type": "VEC3"
    },
    {
      "bufferView": 1,
      "componentType": 5126,
      "count": 212,
      "type": "VEC3"
    },
    {
      "bufferView": 2,
      "componentType": 5126,
      "count": 212,
      "type": "VEC2"
    },
    {
      "bufferView": 3,
      "componentType": 5123,
      "count": 588,
      "type": "SCALAR"
    },
    {
      "bufferView": 4,
      "componentType": 5126,
      "count": 1152,
      "max": [0.8471823930740356, 0.7887642979621887, -1.0000009536743164],
      "min": [-0.8354918956756592, -0.7270036339759827, -1.1502412557601929],
      "type": "VEC3"
    },
    {
      "bufferView": 5,
      "componentType": 5126,
      "count": 1152,
      "type": "VEC3"
    },
    {
      "bufferView": 6,
      "componentType": 5126,
      "count": 1152,
      "type": "VEC2"
    },
    {
      "bufferView": 7,
      "componentType": 5123,
      "count": 2232,
      "type": "SCALAR"
    },
    {
      "bufferView": 8,
      "componentType": 5126,
      "count": 1,
      "max": [0.041666666666666664],
      "min": [0.041666666666666664],
      "type": "SCALAR"
    },
    {
      "bufferView": 9,
      "componentType": 5126,
      "count": 1,
      "type": "VEC3"
    },
    {
      "bufferView": 10,
      "componentType": 5126,
      "count": 1,
      "type": "VEC4"
    },
    {
      "bufferView": 11,
      "componentType": 5126,
      "count": 1,
      "type": "VEC3"
    }
  ],
  "bufferViews": [
    {
      "buffer": 0,
      "byteLength": 2544,
      "byteOffset": 0
    },
    {
      "buffer": 0,
      "byteLength": 2544,
      "byteOffset": 2544
    },
    {
      "buffer": 0,
      "byteLength": 1696,
      "byteOffset": 5088
    },
    {
      "buffer": 0,
      "byteLength": 1176,
      "byteOffset": 6784
    },
    {
      "buffer": 0,
      "byteLength": 13824,
      "byteOffset": 7960
    },
    {
      "buffer": 0,
      "byteLength": 13824,
      "byteOffset": 21784
    },
    {
      "buffer": 0,
      "byteLength": 9216,
      "byteOffset": 35608
    },
    {
      "buffer": 0,
      "byteLength": 4464,
      "byteOffset": 44824
    },
    {
      "buffer": 0,
      "byteLength": 4,
      "byteOffset": 49288
    },
    {
      "buffer": 0,
      "byteLength": 12,
      "byteOffset": 49292
    },
    {
      "buffer": 0,
      "byteLength": 16,
      "byteOffset": 49304
    },
    {
      "buffer": 0,
      "byteLength": 12,
      "byteOffset": 49320
    }
  ],
  "buffers": [
    {
      "byteLength": 49332,
      "uri": "data:application/octet-stream;base64,"
    }
  ]
}
